<svg version="1.1" id="Layer_1" xmlns="http://www.w3.org/2000/svg" xmlns:xlink="http://www.w3.org/1999/xlink" x="0px" y="0px"
	 width="100%" viewBox="0 0 1254 1254" enable-background="new 0 0 1254 1254" xml:space="preserve">
<defs>
	<clipPath id="favicon-rounded-corners">
		<rect width="1254" height="1254" rx="220" ry="220"/>
	</clipPath>
</defs>
<g clip-path="url(#favicon-rounded-corners)">
<path fill="#FDFDFD" opacity="1.000000" stroke="none"
	d="
M570.000000,1255.000000
	C380.000000,1255.000000 190.500000,1255.000000 1.000000,1255.000000
	C1.000000,837.000000 1.000000,419.000000 1.000000,1.000000
	C419.000000,1.000000 837.000000,1.000000 1255.000000,1.000000
	C1255.000000,419.000000 1255.000000,837.000000 1255.000000,1255.000000
	C1026.833374,1255.000000 798.666687,1255.000000 570.000000,1255.000000
M381.027252,380.593323
	C379.658112,382.876740 378.276093,385.152557 376.921692,387.444672
	C350.736023,431.759674 335.772858,479.461517 335.630219,531.099487
	C335.296082,652.076294 335.448120,773.054810 335.713257,894.031921
	C335.728882,901.167419 337.400696,908.745728 340.137970,915.357849
	C361.385498,966.682861 430.551636,970.833008 461.821716,932.641052
	C466.534576,926.884949 470.006348,920.090881 474.861694,914.477051
	C492.677673,893.878113 524.171814,891.924561 544.856689,909.536621
	C553.007019,916.476135 556.906250,925.844666 561.853027,934.931519
	C577.229553,963.177185 601.486755,978.049866 633.827576,975.955811
	C665.311646,973.917297 687.838013,957.199341 699.951233,927.980469
	C712.177429,898.489136 749.908813,888.073792 774.955383,907.754333
	C782.238892,913.477356 786.405334,921.398682 791.762939,928.569641
	C809.867676,952.802063 834.518494,961.146484 863.966003,956.646545
	C892.981140,952.212646 920.644348,925.607727 920.460144,889.900269
	C919.845459,770.758789 920.261536,651.612244 920.227844,532.467590
	C920.210754,472.088409 901.424500,417.602478 867.083740,368.478271
	C834.821655,322.327759 792.225830,288.576324 740.168884,267.003540
	C692.890808,247.411209 643.812683,240.719147 592.981506,247.173462
	C540.678650,253.814651 493.364807,272.733032 451.234924,304.512512
	C423.432465,325.484528 400.346100,350.808990 381.027252,380.593323
z"/>
<path fill="#080807" opacity="1.000000" stroke="none"
	d="
M381.213013,380.281769
	C400.346100,350.808990 423.432465,325.484528 451.234924,304.512512
	C493.364807,272.733032 540.678650,253.814651 592.981506,247.173462
	C643.812683,240.719147 692.890808,247.411209 740.168884,267.003540
	C792.225830,288.576324 834.821655,322.327759 867.083740,368.478271
	C901.424500,417.602478 920.210754,472.088409 920.227844,532.467590
	C920.261536,651.612244 919.845459,770.758789 920.460144,889.900269
	C920.644348,925.607727 892.981140,952.212646 863.966003,956.646545
	C834.518494,961.146484 809.867676,952.802063 791.762939,928.569641
	C786.405334,921.398682 782.238892,913.477356 774.955383,907.754333
	C749.908813,888.073792 712.177429,898.489136 699.951233,927.980469
	C687.838013,957.199341 665.311646,973.917297 633.827576,975.955811
	C601.486755,978.049866 577.229553,963.177185 561.853027,934.931519
	C556.906250,925.844666 553.007019,916.476135 544.856689,909.536621
	C524.171814,891.924561 492.677673,893.878113 474.861694,914.477051
	C470.006348,920.090881 466.534576,926.884949 461.821716,932.641052
	C430.551636,970.833008 361.385498,966.682861 340.137970,915.357849
	C337.400696,908.745728 335.728882,901.167419 335.713257,894.031921
	C335.448120,773.054810 335.296082,652.076294 335.630219,531.099487
	C335.772858,479.461517 350.736023,431.759674 376.921692,387.444672
	C378.276093,385.152557 379.658112,382.876740 381.213013,380.281769
M618.678040,763.787537
	C649.725098,765.171997 680.206482,761.546692 709.942078,752.612732
	C749.822876,740.630554 785.523682,721.478088 814.114380,690.436462
	C820.532043,683.468567 820.562073,673.748962 813.689331,667.321411
	C806.503296,660.600891 794.434204,660.925842 786.927612,668.050110
	C785.002625,669.876953 783.234680,671.897400 781.164917,673.539307
	C764.184875,687.009216 745.244629,697.084900 724.916077,704.275757
	C658.471313,727.779724 591.869934,728.005005 525.511841,703.989929
	C502.705597,695.736328 481.258423,684.852783 464.198730,666.824829
	C459.965485,662.351318 454.338043,661.459351 448.508942,663.517456
	C437.231781,667.499146 434.967010,681.142456 443.641663,690.527710
	C460.266113,708.514099 480.196716,721.878601 501.832275,732.942871
	C538.242126,751.562561 577.035522,761.229675 618.678040,763.787537
M521.051575,455.400055
	C497.997833,443.729828 470.961456,457.052063 467.756165,481.912384
	C466.931152,488.311249 467.282196,494.874451 467.266785,501.362579
	C467.217438,522.156433 467.482697,542.954102 467.158966,563.743042
	C466.977600,575.389404 469.330048,585.896423 477.538940,594.529724
	C487.506226,605.012451 503.346375,608.487732 516.623474,603.229614
	C530.556213,597.711792 539.490540,584.499512 539.505188,568.813538
	C539.529846,542.334534 539.052979,515.851440 539.392517,489.377869
	C539.581421,474.649139 533.653992,463.786469 521.051575,455.400055
M774.999512,594.493286
	C781.648071,587.565491 784.959167,579.262512 784.980835,569.698608
	C785.043701,541.889465 785.093811,514.080139 785.046570,486.270966
	C785.014160,467.190002 768.659424,450.970886 749.600098,450.935120
	C729.751831,450.897888 713.100830,466.884583 713.048767,486.273590
	C712.975037,513.741516 712.979126,541.210388 713.134216,568.677856
	C713.222412,584.293701 720.398926,596.105103 734.527283,602.477295
	C749.149231,609.072205 762.776245,606.061829 774.999512,594.493286
z"/>
<path fill="#FAF9FA" opacity="1.000000" stroke="none"
	d="
M618.200439,763.781189
	C577.035522,761.229675 538.242126,751.562561 501.832275,732.942871
	C480.196716,721.878601 460.266113,708.514099 443.641663,690.527710
	C434.967010,681.142456 437.231781,667.499146 448.508942,663.517456
	C454.338043,661.459351 459.965485,662.351318 464.198730,666.824829
	C481.258423,684.852783 502.705597,695.736328 525.511841,703.989929
	C591.869934,728.005005 658.471313,727.779724 724.916077,704.275757
	C745.244629,697.084900 764.184875,687.009216 781.164917,673.539307
	C783.234680,671.897400 785.002625,669.876953 786.927612,668.050110
	C794.434204,660.925842 806.503296,660.600891 813.689331,667.321411
	C820.562073,673.748962 820.532043,683.468567 814.114380,690.436462
	C785.523682,721.478088 749.822876,740.630554 709.942078,752.612732
	C680.206482,761.546692 649.725098,765.171997 618.200439,763.781189
z"/>
<path fill="#FAFAFA" opacity="1.000000" stroke="none"
	d="
M521.357666,455.603790
	C533.653992,463.786469 539.581421,474.649139 539.392517,489.377869
	C539.052979,515.851440 539.529846,542.334534 539.505188,568.813538
	C539.490540,584.499512 530.556213,597.711792 516.623474,603.229614
	C503.346375,608.487732 487.506226,605.012451 477.538940,594.529724
	C469.330048,585.896423 466.977600,575.389404 467.158966,563.743042
	C467.482697,542.954102 467.217438,522.156433 467.266785,501.362579
	C467.282196,494.874451 466.931152,488.311249 467.756165,481.912384
	C470.961456,457.052063 497.997833,443.729828 521.357666,455.603790
z"/>
<path fill="#FBFBFB" opacity="1.000000" stroke="none"
	d="
M774.748901,594.744507
	C762.776245,606.061829 749.149231,609.072205 734.527283,602.477295
	C720.398926,596.105103 713.222412,584.293701 713.134216,568.677856
	C712.979126,541.210388 712.975037,513.741516 713.048767,486.273590
	C713.100830,466.884583 729.751831,450.897888 749.600098,450.935120
	C768.659424,450.970886 785.014160,467.190002 785.046570,486.270966
	C785.093811,514.080139 785.043701,541.889465 784.980835,569.698608
	C784.959167,579.262512 781.648071,587.565491 774.748901,594.744507
z"/>
</g>
</svg>
