<svg version="1.1" id="Layer_1" xmlns="http://www.w3.org/2000/svg" xmlns:xlink="http://www.w3.org/1999/xlink" x="0px" y="0px"
	 width="100%" viewBox="0 0 1024 1024" enable-background="new 0 0 1024 1024" xml:space="preserve">
<path fill="#000000" opacity="1.000000" stroke="none" 
	d="
M359.802551,406.937378 
	C378.537506,408.209656 396.801086,409.473175 415.068909,410.672455 
	C418.111389,410.872223 420.990784,411.581879 423.753326,412.793335 
	C430.994659,415.968872 435.202667,421.904999 434.922607,428.465759 
	C434.612030,435.742371 429.453522,441.940063 421.779388,444.334778 
	C418.046204,445.499695 414.185272,445.587158 410.385071,445.328674 
	C405.513367,444.997314 404.833252,447.180054 405.617157,451.353668 
	C408.497284,466.687683 409.081360,482.132538 406.197998,497.504669 
	C402.561859,516.890076 394.975739,534.390259 380.455933,548.343933 
	C357.340576,570.557922 315.936218,565.676208 298.736847,538.651794 
	C285.140900,517.289185 282.113068,493.709625 284.255005,469.068207 
	C285.014832,460.326721 287.042236,451.765839 288.787384,442.494934 
	C282.332703,442.071411 276.572845,441.632568 270.805817,441.329193 
	C261.840057,440.857574 252.807861,442.112091 243.891464,440.358032 
	C234.443069,438.499390 228.859436,433.049255 227.937546,424.871704 
	C227.091141,417.363678 232.089737,409.428925 239.977310,405.853241 
	C244.763702,403.683411 249.871933,402.924042 255.062546,402.821350 
	C282.056854,402.287445 308.989288,403.642822 335.904663,405.534393 
	C343.707581,406.082794 351.522980,406.454498 359.802551,406.937378 
z"/>
<path fill="#000000" opacity="1.000000" stroke="none" 
	d="
M728.922852,408.721710 
	C739.203613,408.198608 749.013000,407.776123 758.808960,407.145844 
	C766.160828,406.672821 773.497803,407.089111 780.735352,408.029114 
	C788.473450,409.034180 794.534241,413.140747 797.192017,420.830627 
	C800.959900,431.732452 794.105042,441.781708 781.897034,443.166229 
	C773.802002,444.084351 765.650513,444.713715 757.509521,444.939514 
	C752.431580,445.080322 751.882141,447.140533 752.744934,451.522095 
	C757.515686,475.749939 756.376892,499.700653 746.959717,522.650452 
	C739.441711,540.971924 727.512634,555.181213 706.727173,559.431396 
	C682.852844,564.313293 661.329407,554.893616 648.832520,533.794312 
	C634.716553,509.961609 630.371460,484.145538 633.580566,456.877960 
	C634.425293,449.701111 634.331726,449.420074 627.324951,449.341034 
	C622.661560,449.288422 617.997803,449.168671 613.334961,449.198975 
	C609.761658,449.222229 606.391968,448.393066 603.138672,447.053375 
	C592.091980,442.504578 590.261780,431.010681 599.413818,423.218048 
	C604.134949,419.198181 609.877808,417.337524 615.938049,416.835541 
	C632.851013,415.434601 649.778076,414.196899 666.706238,412.988647 
	C687.282410,411.520020 707.865540,410.147278 728.922852,408.721710 
z"/>
<path fill="#000000" opacity="1.000000" stroke="none" 
	d="
M524.847412,725.208252 
	C502.114380,727.026978 479.873505,727.364380 457.751678,723.345459 
	C451.521637,722.213623 445.381165,720.716675 439.405609,718.652039 
	C431.875732,716.050293 428.339691,709.565613 430.448608,702.661438 
	C432.631134,695.516174 438.723022,692.055115 446.672028,694.309875 
	C463.774445,699.161072 481.240723,701.257751 498.913239,701.528320 
	C521.062805,701.867371 542.116089,696.700195 562.287354,687.703064 
	C564.409790,686.756409 566.569885,685.818970 568.803406,685.211487 
	C574.054138,683.783386 578.607666,685.520508 581.465637,689.802063 
	C584.194153,693.889709 584.053711,699.252502 581.109070,703.401733 
	C578.926941,706.476501 575.870056,708.492310 572.641479,710.254333 
	C557.841675,718.331665 541.875244,722.729187 524.847412,725.208252 
z"/>
</svg>